<?xml version="1.0" encoding="UTF-8"?><svg xmlns="http://www.w3.org/2000/svg" viewBox="0 0 1015.56 254.54"><defs><style>.d{fill:#ffffff;}.e{fill:#fff200;}</style></defs><g id="a"/><g id="b"><g id="c"><g><path class="e" d="M66.49,188.05H254.54v66.49H0V0H66.49V188.05ZM66.49,0L254.54,188.05V0H66.49Z"/><path class="d" d="M356.07,171.03h63.06v17.01h-82.29V58.59h19.23v112.44Zm240.33-77.67c-14.42,0-26.63,8.51-30.33,19.05-3.7-12.21-14.98-19.05-30.14-19.05-13.69,0-23.67,7.58-27.55,18.12v-16.64h-18.03v50.49c0,16.27-10.36,28.11-24.97,28.11-13.13,0-21.82-9.99-21.82-24.78v-53.81h-17.94v57.33c0,22.19,13.69,37.36,34.77,37.36,13.87,0,24.97-6.29,29.96-17.94v16.46h18.03v-54.19c0-14.79,8.51-24.78,22.75-24.78,12.21,0,19.6,9.99,19.6,24.78v54.19h17.94v-54.19c0-14.79,8.51-24.78,22.75-24.78,12.39,0,19.79,9.99,19.79,24.78v54.19h17.94v-59.18c0-21.64-12.57-35.51-32.73-35.51Zm114.09,1.48h17.94v93.21h-17.94v-12.57c-4.44,7.95-16.27,14.05-29.41,14.05-28.66,0-44.75-20.34-44.75-48.08s16.09-48.08,44.57-48.08c12.21,0,23.86,5.73,29.59,13.87v-12.39Zm1.29,46.6c0-19.42-11.28-32.36-28.67-32.36s-28.48,12.94-28.48,32.36,11.28,32.36,28.48,32.36,28.67-12.94,28.67-32.36Zm74.86-48.08c-13.87,0-24.97,6.29-29.96,17.94v-16.46h-17.94v93.21h17.94v-50.49c0-16.27,10.36-28.11,24.97-28.11,13.13,0,21.82,9.99,21.82,24.78v53.81h17.94v-57.33c0-22.19-13.69-37.36-34.77-37.36Zm43.65-14.98h19.97v-22.56h-19.97v22.56Zm1.11,109.66h17.94V94.84h-17.94v93.21Zm65.1-122.42h-17.94v29.22h-21.32v15.53h21.32v47.16c0,19.05,12.02,30.51,30.88,30.51h14.61v-15.53h-13.13c-9.06,0-14.42-5.55-14.42-15.53v-46.6h27.56v-15.53h-27.56v-29.22Zm100.57,29.22l-24.6,69.9-24.41-69.9h-18.49l34.58,94.13-12.58,36.8h17.2l14.05-41.05,32.73-89.88h-18.49Z"/></g></g></g></svg>